# xmcd CD database file
#
# Track frame offsets:
#	150
#	22753
#	37715
#	47378
#	67545
#	81765
#	95325
#	105423
#	127828
#	151520
#
# Disc length: 2149 seconds
#
# Revision: 0
# Processed by: cddbd v1.4PL0 Copyright (c) Steve Scherf et al.
# Submitted via: CDex 1.50beta10
#
DISCID=5108630a
DTITLE=Shakey Jake Harris - Mouth Harp Blues
DYEAR=1993
DGENRE=Blues
TTITLE0=Mouth Harp Blues
TTITLE1=Love My Baby
TTITLE2=Jake's Cha Cha
TTITLE3=Gimme a Smile
TTITLE4=My Broken Heart
TTITLE5=Angry Lover
TTITLE6=Things Is Alright
TTITLE7=Easy Baby
TTITLE8=Things Are Different Baby
TTITLE9=It Won't Happen Again
EXTD=YEAR: 1993
EXTT0=
EXTT1=
EXTT2=
EXTT3=
EXTT4=
EXTT5=
EXTT6=
EXTT7=
EXTT8=
EXTT9=
PLAYORDER=
